<svg class="svg-icon" style="width: 1em; height: 1em;vertical-align: middle;fill: currentColor;overflow: hidden;" viewBox="0 0 1024 1024" version="1.1" xmlns="http://www.w3.org/2000/svg"><path d="M778.24 260.608m-20.48 0a20.48 20.48 0 1 0 40.96 0 20.48 20.48 0 1 0-40.96 0Z"  /><path d="M479.232 904.704c7.68 10.752 19.968 16.896 32.768 16.896 13.312 0 25.088-6.144 32.768-16.896 27.648-37.376 98.816-135.68 162.304-241.152C784.896 532.992 824.32 435.2 824.32 372.736c0-11.264-9.216-20.48-20.48-20.48s-20.48 9.216-20.48 20.48c0 68.608-71.168 237.568-271.36 507.392-200.192-269.312-271.36-438.784-271.36-507.392 0-149.504 121.856-270.848 271.36-270.848 79.36 0 154.624 34.816 206.848 95.232 7.168 8.704 20.48 9.728 28.672 2.048 8.704-7.168 9.728-20.48 2.048-28.672-59.904-69.632-146.432-109.568-237.568-109.568-172.032 0-312.32 139.776-312.32 311.808 0 62.464 39.424 160.256 117.248 290.816 63.488 105.472 134.656 203.776 162.304 241.152zM688.64 936.448h-353.28c-11.264 0-20.48 9.216-20.48 20.48s9.216 20.48 20.48 20.48h353.28c11.264 0 20.48-9.216 20.48-20.48s-9.216-20.48-20.48-20.48z"  /><path d="M343.04 368.128c0 93.184 75.776 168.96 168.96 168.96s168.96-75.776 168.96-168.96-75.776-168.96-168.96-168.96-168.96 75.776-168.96 168.96z m296.96 0c0 70.656-57.344 128-128 128s-128-57.344-128-128 57.344-128 128-128 128 57.344 128 128z"  /></svg>