<?xml version="1.0" standalone="no"?>
<!DOCTYPE svg PUBLIC "-//W3C//DTD SVG 20010904//EN"
 "http://www.w3.org/TR/2001/REC-SVG-20010904/DTD/svg10.dtd">
<svg version="1.0" xmlns="http://www.w3.org/2000/svg"
 width="1244.000000pt" height="1280.000000pt" viewBox="0 0 1244.000000 1280.000000"
 preserveAspectRatio="xMidYMid meet">
<g transform="translate(0.000000,1280.000000) scale(0.100000,-0.100000)"
fill="#000000" stroke="none">
<path d="M5320 12048 c-410 -411 -751 -748 -757 -748 -10 0 -13 130 -13 625
l0 625 -1325 0 -1325 0 0 -1957 0 -1958 -950 -950 -950 -950 0 -132 0 -133
520 0 c503 0 520 -1 530 -19 7 -14 10 -1038 10 -3235 l0 -3216 5150 0 5150 0
0 3229 c0 2935 1 3229 16 3235 9 3 252 6 540 6 l524 0 0 133 0 133 -172 171
c-95 93 -1490 1453 -3099 3021 -1610 1567 -2930 2855 -2933 2861 -5 7 -39 10
-89 9 l-82 -1 -745 -749z"/>
</g>
</svg>
